<svg xmlns="http://www.w3.org/2000/svg" xmlns:xlink="http://www.w3.org/1999/xlink" width="800" height="521.04"><rect width="800" height="521.04" rx="0" ry="0" class="a"/><svg height="521.04" viewBox="0 0 80 52.104" width="800" xmlns="http://www.w3.org/2000/svg" xmlns:xlink="http://www.w3.org/1999/xlink"><style>@keyframes g{0%{transform:translateX(0)}.2%{transform:translateX(-80px)}.4%{transform:translateX(-240px)}18.6%{transform:translateX(-320px)}19.7%{transform:translateX(-400px)}22.2%{transform:translateX(-640px)}22.3%{transform:translateX(-720px)}40.5%{transform:translateX(-800px)}41.6%{transform:translateX(-880px)}43%{transform:translateX(-960px)}44.5%{transform:translateX(-1040px)}45.6%{transform:translateX(-1120px)}48.1%{transform:translateX(-1200px)}48.2%{transform:translateX(-1520px)}66.4%{transform:translateX(-1600px)}67.5%{transform:translateX(-1680px)}68.9%{transform:translateX(-1760px)}70.4%{transform:translateX(-1840px)}71.5%{transform:translateX(-1920px)}74%{transform:translateX(-2320px)}74.1%{transform:translateX(-2400px)}92.3%{transform:translateX(-2480px)}93.4%{transform:translateX(-2560px)}94.8%{transform:translateX(-2640px)}96.3%{transform:translateX(-2720px)}97.4%{transform:translateX(-2800px)}99.9%{transform:translateX(-2880px)}to{transform:translateX(-3040px)}}.a{fill:#282d35}.c,.d{white-space:pre}.c{fill:#a8cc8c;font-weight:700}.d{fill:#b9c0cb}</style><g font-family="Monaco,Consolas,Menlo,'Bitstream Vera Sans Mono','Powerline Symbols',monospace" font-size="1.67"><defs><symbol id="1"><text y="1.67" class="c">Let&apos;s</text><text x="6.012" y="1.67" class="c">just</text><text x="11.022" y="1.67" class="c">run</text><text x="15.03" y="1.67" class="c">the</text><text x="19.038" y="1.67" class="c">command.</text></symbol><symbol id="2"><text y="1.67" class="d">usage.sh</text><text x="9.018" y="1.67" class="d">$</text></symbol><symbol id="3"><text y="1.67" class="d">usage.sh</text><text x="9.018" y="1.67" class="d">$</text><text x="11.022" y="1.67" class="d">l</text></symbol><symbol id="4"><text y="1.67" class="d">usage.sh</text><text x="9.018" y="1.67" class="d">$</text><text x="11.022" y="1.67" class="d">ls</text></symbol><symbol id="5"><text y="1.67" class="d">dir</text><text x="5.01" y="1.67" class="d">file1</text><text x="12.024" y="1.67" class="d">file2</text></symbol><symbol id="6"><text y="1.67" class="c">The</text><text x="4.008" y="1.67" class="c">-a</text><text x="7.014" y="1.67" class="c">option</text><text x="14.028" y="1.67" class="c">shows</text><text x="20.04" y="1.67" class="c">hidden</text><text x="27.054" y="1.67" class="c">files.</text></symbol><symbol id="7"><text y="1.67" class="d">usage.sh</text><text x="9.018" y="1.67" class="d">$</text><text x="11.022" y="1.67" class="d">ls</text><text x="14.028" y="1.67" class="d">-</text></symbol><symbol id="8"><text y="1.67" class="d">usage.sh</text><text x="9.018" y="1.67" class="d">$</text><text x="11.022" y="1.67" class="d">ls</text><text x="14.028" y="1.67" class="d">-a</text></symbol><symbol id="9"><text y="1.67" class="d">.</text><text x="3.006" y="1.67" class="d">..</text><text x="7.014" y="1.67" class="d">dir</text><text x="12.024" y="1.67" class="d">file1</text><text x="19.038" y="1.67" class="d">file2</text><text x="26.052" y="1.67" class="d">.file3</text></symbol><symbol id="10"><text y="1.67" class="c">The</text><text x="4.008" y="1.67" class="c">-R</text><text x="7.014" y="1.67" class="c">option</text><text x="14.028" y="1.67" class="c">recurses</text><text x="23.046" y="1.67" class="c">into</text><text x="28.056" y="1.67" class="c">directories</text></symbol><symbol id="11"><text y="1.67" class="d">usage.sh</text><text x="9.018" y="1.67" class="d">$</text><text x="11.022" y="1.67" class="d">ls</text><text x="14.028" y="1.67" class="d">-R</text></symbol><symbol id="12"><text y="1.67" class="d">.:</text></symbol><symbol id="13"><text y="1.67" class="d">./dir:</text></symbol><symbol id="14"><text y="1.67" class="d">file</text></symbol><symbol id="15"><text y="1.67" class="c">You</text><text x="4.008" y="1.67" class="c">can</text><text x="8.016" y="1.67" class="c">also</text><text x="13.026" y="1.67" class="c">see</text><text x="17.034" y="1.67" class="c">the</text><text x="21.042" y="1.67" class="c">file</text><text x="26.052" y="1.67" class="c">modes</text></symbol><symbol id="16"><text y="1.67" class="d">usage.sh</text><text x="9.018" y="1.67" class="d">$</text><text x="11.022" y="1.67" class="d">ls</text><text x="14.028" y="1.67" class="d">-l</text></symbol><symbol id="17"><text y="1.67" class="d">total</text><text x="6.012" y="1.67" class="d">4</text></symbol><symbol id="a"><path fill="transparent" d="M0 0h80v24H0z"/></symbol><symbol id="b"><path fill="#6f7683" d="M0 0h1.102v2.171H0z"/></symbol></defs><path class="a" d="M0 0h80v52.104H0z"/><g style="animation-duration:8.823173s;animation-iteration-count:infinite;animation-name:g;animation-timing-function:steps(1,end)"><svg width="3120"><svg><use xlink:href="#a"/><use xlink:href="#b" x="-.004"/></svg><svg x="80"><use xlink:href="#a"/><use xlink:href="#b" x="-.004"/></svg><svg x="160"><use xlink:href="#a"/><use xlink:href="#b" x="-.004" y="2.146"/><use xlink:href="#1"/></svg><svg x="240"><use xlink:href="#a"/><use xlink:href="#b" x="10.996" y="2.146"/><use xlink:href="#1"/><use xlink:href="#2" y="2.171"/></svg><svg x="320"><use xlink:href="#a"/><use xlink:href="#b" x="11.996" y="2.146"/><use xlink:href="#1"/><use xlink:href="#3" y="2.171"/></svg><svg x="400"><use xlink:href="#a"/><use xlink:href="#b" x="12.996" y="2.146"/><use xlink:href="#1"/><use xlink:href="#4" y="2.171"/></svg><svg x="480"><use xlink:href="#a"/><use xlink:href="#b" x="-.004" y="4.317"/><use xlink:href="#1"/><use xlink:href="#4" y="2.171"/></svg><svg x="560"><use xlink:href="#a"/><use xlink:href="#b" x="-.004" y="6.488"/><use xlink:href="#1"/><use xlink:href="#4" y="2.171"/><use xlink:href="#5" y="4.342"/></svg><svg x="640"><use xlink:href="#a"/><use xlink:href="#b" x="-.004" y="8.659"/><use xlink:href="#1"/><use xlink:href="#4" y="2.171"/><use xlink:href="#5" y="4.342"/><use xlink:href="#6" y="6.513"/></svg><svg x="720"><use xlink:href="#a"/><use xlink:href="#b" x="10.996" y="8.659"/><use xlink:href="#1"/><use xlink:href="#4" y="2.171"/><use xlink:href="#5" y="4.342"/><use xlink:href="#6" y="6.513"/><use xlink:href="#2" y="8.684"/></svg><svg x="800"><use xlink:href="#a"/><use xlink:href="#b" x="11.996" y="8.659"/><use xlink:href="#1"/><use xlink:href="#4" y="2.171"/><use xlink:href="#5" y="4.342"/><use xlink:href="#6" y="6.513"/><use xlink:href="#3" y="8.684"/></svg><svg x="880"><use xlink:href="#a"/><use xlink:href="#b" x="12.996" y="8.659"/><use xlink:href="#1"/><use xlink:href="#4" y="2.171"/><use xlink:href="#5" y="4.342"/><use xlink:href="#6" y="6.513"/><use xlink:href="#4" y="8.684"/></svg><svg x="960"><use xlink:href="#a"/><use xlink:href="#b" x="13.996" y="8.659"/><use xlink:href="#1"/><use xlink:href="#4" y="2.171"/><use xlink:href="#5" y="4.342"/><use xlink:href="#6" y="6.513"/><use xlink:href="#4" y="8.684"/></svg><svg x="1040"><use xlink:href="#a"/><use xlink:href="#b" x="14.996" y="8.659"/><use xlink:href="#1"/><use xlink:href="#4" y="2.171"/><use xlink:href="#5" y="4.342"/><use xlink:href="#6" y="6.513"/><use xlink:href="#7" y="8.684"/></svg><svg x="1120"><use xlink:href="#a"/><use xlink:href="#b" x="15.996" y="8.659"/><use xlink:href="#1"/><use xlink:href="#4" y="2.171"/><use xlink:href="#5" y="4.342"/><use xlink:href="#6" y="6.513"/><use xlink:href="#8" y="8.684"/></svg><svg x="1200"><use xlink:href="#a"/><use xlink:href="#b" x="-.004" y="10.83"/><use xlink:href="#1"/><use xlink:href="#4" y="2.171"/><use xlink:href="#5" y="4.342"/><use xlink:href="#6" y="6.513"/><use xlink:href="#8" y="8.684"/></svg><svg x="1280"><use xlink:href="#a"/><use xlink:href="#b" x="-.004" y="13.001"/><use xlink:href="#1"/><use xlink:href="#4" y="2.171"/><use xlink:href="#5" y="4.342"/><use xlink:href="#6" y="6.513"/><use xlink:href="#8" y="8.684"/><use xlink:href="#9" y="10.855"/></svg><svg x="1360"><use xlink:href="#a"/><use xlink:href="#b" x="-.004" y="15.172"/><use xlink:href="#1"/><use xlink:href="#4" y="2.171"/><use xlink:href="#5" y="4.342"/><use xlink:href="#6" y="6.513"/><use xlink:href="#8" y="8.684"/><use xlink:href="#9" y="10.855"/><use xlink:href="#10" y="13.026"/></svg><svg x="1440"><use xlink:href="#a"/><use xlink:href="#b" x="-.004" y="15.172"/><use xlink:href="#1"/><use xlink:href="#4" y="2.171"/><use xlink:href="#5" y="4.342"/><use xlink:href="#6" y="6.513"/><use xlink:href="#8" y="8.684"/><use xlink:href="#9" y="10.855"/><use xlink:href="#10" y="13.026"/></svg><svg x="1520"><use xlink:href="#a"/><use xlink:href="#b" x="10.996" y="15.172"/><use xlink:href="#1"/><use xlink:href="#4" y="2.171"/><use xlink:href="#5" y="4.342"/><use xlink:href="#6" y="6.513"/><use xlink:href="#8" y="8.684"/><use xlink:href="#9" y="10.855"/><use xlink:href="#10" y="13.026"/><use xlink:href="#2" y="15.197"/></svg><svg x="1600"><use xlink:href="#a"/><use xlink:href="#b" x="11.996" y="15.172"/><use xlink:href="#1"/><use xlink:href="#4" y="2.171"/><use xlink:href="#5" y="4.342"/><use xlink:href="#6" y="6.513"/><use xlink:href="#8" y="8.684"/><use xlink:href="#9" y="10.855"/><use xlink:href="#10" y="13.026"/><use xlink:href="#3" y="15.197"/></svg><svg x="1680"><use xlink:href="#a"/><use xlink:href="#b" x="12.996" y="15.172"/><use xlink:href="#1"/><use xlink:href="#4" y="2.171"/><use xlink:href="#5" y="4.342"/><use xlink:href="#6" y="6.513"/><use xlink:href="#8" y="8.684"/><use xlink:href="#9" y="10.855"/><use xlink:href="#10" y="13.026"/><use xlink:href="#4" y="15.197"/></svg><svg x="1760"><use xlink:href="#a"/><use xlink:href="#b" x="13.996" y="15.172"/><use xlink:href="#1"/><use xlink:href="#4" y="2.171"/><use xlink:href="#5" y="4.342"/><use xlink:href="#6" y="6.513"/><use xlink:href="#8" y="8.684"/><use xlink:href="#9" y="10.855"/><use xlink:href="#10" y="13.026"/><use xlink:href="#4" y="15.197"/></svg><svg x="1840"><use xlink:href="#a"/><use xlink:href="#b" x="14.996" y="15.172"/><use xlink:href="#1"/><use xlink:href="#4" y="2.171"/><use xlink:href="#5" y="4.342"/><use xlink:href="#6" y="6.513"/><use xlink:href="#8" y="8.684"/><use xlink:href="#9" y="10.855"/><use xlink:href="#10" y="13.026"/><use xlink:href="#7" y="15.197"/></svg><svg x="1920"><use xlink:href="#a"/><use xlink:href="#b" x="15.996" y="15.172"/><use xlink:href="#1"/><use xlink:href="#4" y="2.171"/><use xlink:href="#5" y="4.342"/><use xlink:href="#6" y="6.513"/><use xlink:href="#8" y="8.684"/><use xlink:href="#9" y="10.855"/><use xlink:href="#10" y="13.026"/><use xlink:href="#11" y="15.197"/></svg><svg x="2000"><use xlink:href="#a"/><use xlink:href="#b" x="-.004" y="17.343"/><use xlink:href="#1"/><use xlink:href="#4" y="2.171"/><use xlink:href="#5" y="4.342"/><use xlink:href="#6" y="6.513"/><use xlink:href="#8" y="8.684"/><use xlink:href="#9" y="10.855"/><use xlink:href="#10" y="13.026"/><use xlink:href="#11" y="15.197"/></svg><svg x="2080"><use xlink:href="#a"/><use xlink:href="#b" x="-.004" y="19.514"/><use xlink:href="#1"/><use xlink:href="#4" y="2.171"/><use xlink:href="#5" y="4.342"/><use xlink:href="#6" y="6.513"/><use xlink:href="#8" y="8.684"/><use xlink:href="#9" y="10.855"/><use xlink:href="#10" y="13.026"/><use xlink:href="#11" y="15.197"/><use xlink:href="#12" y="17.368"/></svg><svg x="2160"><use xlink:href="#a"/><use xlink:href="#b" x="-.004" y="28.198"/><use xlink:href="#1"/><use xlink:href="#4" y="2.171"/><use xlink:href="#5" y="4.342"/><use xlink:href="#6" y="6.513"/><use xlink:href="#8" y="8.684"/><use xlink:href="#9" y="10.855"/><use xlink:href="#10" y="13.026"/><use xlink:href="#11" y="15.197"/><use xlink:href="#12" y="17.368"/><use xlink:href="#5" y="19.539"/><use xlink:href="#13" y="23.881"/><use xlink:href="#14" y="26.052"/></svg><svg x="2240"><use xlink:href="#a"/><use xlink:href="#b" x="-.004" y="30.369"/><use xlink:href="#1"/><use xlink:href="#4" y="2.171"/><use xlink:href="#5" y="4.342"/><use xlink:href="#6" y="6.513"/><use xlink:href="#8" y="8.684"/><use xlink:href="#9" y="10.855"/><use xlink:href="#10" y="13.026"/><use xlink:href="#11" y="15.197"/><use xlink:href="#12" y="17.368"/><use xlink:href="#5" y="19.539"/><use xlink:href="#13" y="23.881"/><use xlink:href="#14" y="26.052"/><use xlink:href="#15" y="28.223"/></svg><svg x="2320"><use xlink:href="#a"/><use xlink:href="#b" x="-.004" y="30.369"/><use xlink:href="#1"/><use xlink:href="#4" y="2.171"/><use xlink:href="#5" y="4.342"/><use xlink:href="#6" y="6.513"/><use xlink:href="#8" y="8.684"/><use xlink:href="#9" y="10.855"/><use xlink:href="#10" y="13.026"/><use xlink:href="#11" y="15.197"/><use xlink:href="#12" y="17.368"/><use xlink:href="#5" y="19.539"/><use xlink:href="#13" y="23.881"/><use xlink:href="#14" y="26.052"/><use xlink:href="#15" y="28.223"/></svg><svg x="2400"><use xlink:href="#a"/><use xlink:href="#b" x="10.996" y="30.369"/><use xlink:href="#1"/><use xlink:href="#4" y="2.171"/><use xlink:href="#5" y="4.342"/><use xlink:href="#6" y="6.513"/><use xlink:href="#8" y="8.684"/><use xlink:href="#9" y="10.855"/><use xlink:href="#10" y="13.026"/><use xlink:href="#11" y="15.197"/><use xlink:href="#12" y="17.368"/><use xlink:href="#5" y="19.539"/><use xlink:href="#13" y="23.881"/><use xlink:href="#14" y="26.052"/><use xlink:href="#15" y="28.223"/><use xlink:href="#2" y="30.394"/></svg><svg x="2480"><use xlink:href="#a"/><use xlink:href="#b" x="11.996" y="30.369"/><use xlink:href="#1"/><use xlink:href="#4" y="2.171"/><use xlink:href="#5" y="4.342"/><use xlink:href="#6" y="6.513"/><use xlink:href="#8" y="8.684"/><use xlink:href="#9" y="10.855"/><use xlink:href="#10" y="13.026"/><use xlink:href="#11" y="15.197"/><use xlink:href="#12" y="17.368"/><use xlink:href="#5" y="19.539"/><use xlink:href="#13" y="23.881"/><use xlink:href="#14" y="26.052"/><use xlink:href="#15" y="28.223"/><use xlink:href="#3" y="30.394"/></svg><svg x="2560"><use xlink:href="#a"/><use xlink:href="#b" x="12.996" y="30.369"/><use xlink:href="#1"/><use xlink:href="#4" y="2.171"/><use xlink:href="#5" y="4.342"/><use xlink:href="#6" y="6.513"/><use xlink:href="#8" y="8.684"/><use xlink:href="#9" y="10.855"/><use xlink:href="#10" y="13.026"/><use xlink:href="#11" y="15.197"/><use xlink:href="#12" y="17.368"/><use xlink:href="#5" y="19.539"/><use xlink:href="#13" y="23.881"/><use xlink:href="#14" y="26.052"/><use xlink:href="#15" y="28.223"/><use xlink:href="#4" y="30.394"/></svg><svg x="2640"><use xlink:href="#a"/><use xlink:href="#b" x="13.996" y="30.369"/><use xlink:href="#1"/><use xlink:href="#4" y="2.171"/><use xlink:href="#5" y="4.342"/><use xlink:href="#6" y="6.513"/><use xlink:href="#8" y="8.684"/><use xlink:href="#9" y="10.855"/><use xlink:href="#10" y="13.026"/><use xlink:href="#11" y="15.197"/><use xlink:href="#12" y="17.368"/><use xlink:href="#5" y="19.539"/><use xlink:href="#13" y="23.881"/><use xlink:href="#14" y="26.052"/><use xlink:href="#15" y="28.223"/><use xlink:href="#4" y="30.394"/></svg><svg x="2720"><use xlink:href="#a"/><use xlink:href="#b" x="14.996" y="30.369"/><use xlink:href="#1"/><use xlink:href="#4" y="2.171"/><use xlink:href="#5" y="4.342"/><use xlink:href="#6" y="6.513"/><use xlink:href="#8" y="8.684"/><use xlink:href="#9" y="10.855"/><use xlink:href="#10" y="13.026"/><use xlink:href="#11" y="15.197"/><use xlink:href="#12" y="17.368"/><use xlink:href="#5" y="19.539"/><use xlink:href="#13" y="23.881"/><use xlink:href="#14" y="26.052"/><use xlink:href="#15" y="28.223"/><use xlink:href="#7" y="30.394"/></svg><svg x="2800"><use xlink:href="#a"/><use xlink:href="#b" x="15.996" y="30.369"/><use xlink:href="#1"/><use xlink:href="#4" y="2.171"/><use xlink:href="#5" y="4.342"/><use xlink:href="#6" y="6.513"/><use xlink:href="#8" y="8.684"/><use xlink:href="#9" y="10.855"/><use xlink:href="#10" y="13.026"/><use xlink:href="#11" y="15.197"/><use xlink:href="#12" y="17.368"/><use xlink:href="#5" y="19.539"/><use xlink:href="#13" y="23.881"/><use xlink:href="#14" y="26.052"/><use xlink:href="#15" y="28.223"/><use xlink:href="#16" y="30.394"/></svg><svg x="2880"><use xlink:href="#a"/><use xlink:href="#b" x="-.004" y="32.54"/><use xlink:href="#1"/><use xlink:href="#4" y="2.171"/><use xlink:href="#5" y="4.342"/><use xlink:href="#6" y="6.513"/><use xlink:href="#8" y="8.684"/><use xlink:href="#9" y="10.855"/><use xlink:href="#10" y="13.026"/><use xlink:href="#11" y="15.197"/><use xlink:href="#12" y="17.368"/><use xlink:href="#5" y="19.539"/><use xlink:href="#13" y="23.881"/><use xlink:href="#14" y="26.052"/><use xlink:href="#15" y="28.223"/><use xlink:href="#16" y="30.394"/></svg><svg x="2960"><use xlink:href="#a"/><use xlink:href="#b" x="-.004" y="34.711"/><use xlink:href="#1"/><use xlink:href="#4" y="2.171"/><use xlink:href="#5" y="4.342"/><use xlink:href="#6" y="6.513"/><use xlink:href="#8" y="8.684"/><use xlink:href="#9" y="10.855"/><use xlink:href="#10" y="13.026"/><use xlink:href="#11" y="15.197"/><use xlink:href="#12" y="17.368"/><use xlink:href="#5" y="19.539"/><use xlink:href="#13" y="23.881"/><use xlink:href="#14" y="26.052"/><use xlink:href="#15" y="28.223"/><use xlink:href="#16" y="30.394"/><use xlink:href="#17" y="32.565"/></svg><svg x="3040"><use xlink:href="#a"/><use xlink:href="#b" x="-.004" y="41.224"/><use xlink:href="#1"/><use xlink:href="#4" y="2.171"/><use xlink:href="#5" y="4.342"/><use xlink:href="#6" y="6.513"/><use xlink:href="#8" y="8.684"/><use xlink:href="#9" y="10.855"/><use xlink:href="#10" y="13.026"/><use xlink:href="#11" y="15.197"/><use xlink:href="#12" y="17.368"/><use xlink:href="#5" y="19.539"/><use xlink:href="#13" y="23.881"/><use xlink:href="#14" y="26.052"/><use xlink:href="#15" y="28.223"/><use xlink:href="#16" y="30.394"/><use xlink:href="#17" y="32.565"/><text y="36.406" class="d">drwxrwxr-x</text><text x="11.022" y="36.406" class="d">2</text><text x="13.026" y="36.406" class="d">alvar</text><text x="19.038" y="36.406" class="d">alvar</text><text x="25.05" y="36.406" class="d">4096</text><text x="30.06" y="36.406" class="d">may</text><text x="34.068" y="36.406" class="d">22</text><text x="37.074" y="36.406" class="d">16:44</text><text x="43.086" y="36.406" class="d">dir</text><text y="38.577" class="d">-rw-rw-r--</text><text x="11.022" y="38.577" class="d">1</text><text x="13.026" y="38.577" class="d">alvar</text><text x="19.038" y="38.577" class="d">alvar</text><text x="28.056" y="38.577" class="d">0</text><text x="30.06" y="38.577" class="d">may</text><text x="34.068" y="38.577" class="d">22</text><text x="37.074" y="38.577" class="d">16:44</text><text x="43.086" y="38.577" class="d">file1</text><text y="40.748" class="d">-rw-rw-r--</text><text x="11.022" y="40.748" class="d">1</text><text x="13.026" y="40.748" class="d">alvar</text><text x="19.038" y="40.748" class="d">alvar</text><text x="28.056" y="40.748" class="d">0</text><text x="30.06" y="40.748" class="d">may</text><text x="34.068" y="40.748" class="d">22</text><text x="37.074" y="40.748" class="d">16:44</text><text x="43.086" y="40.748" class="d">file2</text></svg></svg></g></g></svg></svg>